<?xml version="1.0" encoding="UTF-8" standalone="no"?>
<svg
   viewBox="0 0 1080 406.82"
   version="1.1"
   id="svg42"
   sodipodi:docname="Cardlog_partialwhite.svg"
   inkscape:version="1.4 (86a8ad7, 2024-10-11)"
   xmlns:inkscape="http://www.inkscape.org/namespaces/inkscape"
   xmlns:sodipodi="http://sodipodi.sourceforge.net/DTD/sodipodi-0.dtd"
   xmlns="http://www.w3.org/2000/svg"
   xmlns:svg="http://www.w3.org/2000/svg"
   xmlns:rdf="http://www.w3.org/1999/02/22-rdf-syntax-ns#"
   xmlns:cc="http://creativecommons.org/ns#"
   xmlns:dc="http://purl.org/dc/elements/1.1/">
  <sodipodi:namedview
     id="namedview42"
     pagecolor="#505050"
     bordercolor="#eeeeee"
     borderopacity="1"
     inkscape:showpageshadow="0"
     inkscape:pageopacity="0"
     inkscape:pagecheckerboard="0"
     inkscape:deskcolor="#505050"
     inkscape:zoom="1.0689815"
     inkscape:cx="542.57253"
     inkscape:cy="118.33694"
     inkscape:window-width="2560"
     inkscape:window-height="1351"
     inkscape:window-x="2551"
     inkscape:window-y="-9"
     inkscape:window-maximized="1"
     inkscape:current-layer="a32cd980-11ad-43cd-bfcd-f8a4ab7d0356" />
  <defs
     id="defs1">
    <style
       id="style1">.b1efb4d5-43d7-4a2e-ba74-7036435eb84f{fill:#c62032;}.eeb01a81-4485-4426-8fe0-780b22b44035{fill:#221e1f;}.ae84b97d-658c-4c26-ad19-096dfee824dc{fill:none;}</style>
  </defs>
  <title
     id="title1">cardinal-logo</title>
  <g
     id="a32cd980-11ad-43cd-bfcd-f8a4ab7d0356"
     data-name="Layer 2">
    <g
       id="bd1c353f-e065-4ac9-a0b6-457d2ac620a8"
       data-name="Layer 1">
      <path
         class="b1efb4d5-43d7-4a2e-ba74-7036435eb84f"
         d="M377.78,132.77l-237,74.54,7,6.29,203.07-57.1-39.13,34.31L160.59,224.59l7.92,6.82L292,208.09l-30.06,27-81.2,6.13,6,5.84.81.82H247.7L372.39,406.82,192.57,295.36s-27.41-5.51-49.79-18.09c-5.1-2.86-15.44-8.94-43-37.12-20-20.42-64-70.78-64-70.78S6.74,164.59,0,162.14l63.3-82L79,108.76l10.9,5.92,34.72,18.75L374.56,0l-62,83L153.15,148.7a7.11,7.11,0,0,1,.9.53l7.8,4.62L498.51,26.47Z"
         id="path1"
         style="fill-opacity:1.0;fill:#c62032" />
      <path
         class="eeb01a81-4485-4426-8fe0-780b22b44035"
         d="M56.61,134.33l-17.69,28.3L38.39,144l-14-9.64S56,134.41,56.61,134.33Z"
         id="path2"
         style="fill-opacity:1.0;fill:#221e1f" />
      <path
         class="eeb01a81-4485-4426-8fe0-780b22b44035"
         d="M478,269.12c-11.84,19.85-35,24.59-35,24.59s-39.78,7.64-52.93-27.57c-13.56-36.35,17-71.24,49.4-73.29,33.57-2.11,45.8,26.49,45.8,26.49l-19.85,9c-8.62-16.86-25.73-16.17-34.92-13-8.78,3-19.11,12-21.56,22.55-6.82,29.2,16.5,38.39,29,36.23,15.52-2.66,21.31-12.3,25.36-15.48,2.78-2.17,7.27-2,9.51-1.11C481.19,260.55,478,269.12,478,269.12Z"
         id="path3"
         style="fill:#000000;fill-opacity:1.0" />
      <path
         class="eeb01a81-4485-4426-8fe0-780b22b44035"
         d="M491.1,343.42c-3.11,5.21-9.17,6.45-9.17,6.45s-10.44,2-13.89-7.23c-3.56-9.53,4.46-18.69,13-19.23a12.31,12.31,0,0,1,12,6.95l-5.21,2.37c-2.26-4.43-6.75-4.24-9.16-3.42a9.14,9.14,0,0,0-5.66,5.92c-1.79,7.66,4.33,10.07,7.61,9.5,4.07-.7,5.59-3.22,6.65-4.06a2.88,2.88,0,0,1,2.5-.29A2.32,2.32,0,0,1,491.1,343.42Z"
         id="path4"
         style="fill:#000000;fill-opacity:1.0" />
      <path
         class="eeb01a81-4485-4426-8fe0-780b22b44035"
         d="M1030.08,343.42c-3.1,5.21-9.17,6.45-9.17,6.45s-10.43,2-13.88-7.23c-3.56-9.53,4.46-18.69,13-19.23a12.3,12.3,0,0,1,12,6.95l-5.2,2.37c-2.27-4.43-6.75-4.24-9.17-3.42a9.15,9.15,0,0,0-5.65,5.92c-1.79,7.66,4.33,10.07,7.6,9.5,4.08-.7,5.6-3.22,6.66-4.06a2.86,2.86,0,0,1,2.49-.29A2.31,2.31,0,0,1,1030.08,343.42Z"
         id="path5"
         style="fill:#000000;fill-opacity:1.0" />
      <path
         class="eeb01a81-4485-4426-8fe0-780b22b44035"
         d="M550.29,193.28H521.21l-40.6,87.77c-3.71,7.92-.24,14.62,6.66,14.62a10.27,10.27,0,0,0,10.17-5.11l8.09-17.93h43.74l5.27,21.61H575Zm-37.21,62.57,20.79-46.27,11.31,46.27Z"
         id="path6"
         style="fill:#000000;fill-opacity:1.0" />
      <path
         class="eeb01a81-4485-4426-8fe0-780b22b44035"
         d="M513.29,323.4h-7.68l-10.7,23.12c-1,2.08,0,3.88,1.75,3.88a2.78,2.78,0,0,0,2.7-1.35l2.12-4.74H513l1.39,5.68h5.39Zm-9.81,16.5L509,327.69l3,12.21Z"
         id="path7"
         style="fill:#000000;fill-opacity:1.0" />
      <path
         class="eeb01a81-4485-4426-8fe0-780b22b44035"
         d="M964.71,193.28h-29l-40.6,87.77c-3.76,7.92-.24,14.62,6.66,14.62a10.2,10.2,0,0,0,10.13-5.11l8.08-17.93h43.74L969,294.24H989.5ZM927.5,255.85l20.83-46.31,11.27,46.31Z"
         id="path8"
         inkscape:label="path8"
         style="fill:#000000;fill-opacity:1.0" />
      <path
         class="eeb01a81-4485-4426-8fe0-780b22b44035"
         d="M631.56,238.08a6,6,0,0,1-.85,0A11.35,11.35,0,0,1,629,238Z"
         id="path9"
         style="fill:#000000;fill-opacity:1.0" />
      <path
         class="eeb01a81-4485-4426-8fe0-780b22b44035"
         d="M631.56,238.08a6,6,0,0,1-.85,0A11.35,11.35,0,0,1,629,238Z"
         id="path10"
         style="fill:#000000;fill-opacity:1.0" />
      <path
         class="eeb01a81-4485-4426-8fe0-780b22b44035"
         d="M631.56,238.08a6,6,0,0,1-.85,0A11.35,11.35,0,0,1,629,238Z"
         id="path11"
         style="fill:#000000;fill-opacity:1.0" />
      <path
         class="eeb01a81-4485-4426-8fe0-780b22b44035"
         d="M693.36,282.56l-.05.33.29,0Z"
         id="path12"
         style="fill:#000000;fill-opacity:1.0" />
      <path
         class="eeb01a81-4485-4426-8fe0-780b22b44035"
         d="M713,193.28h-29.9l-11.51,101h29.89c.53,0,1.06,0,1.6,0,29.11-.78,55.33-23.4,56.07-54C759.76,212.31,740.81,193.28,713,193.28Zm-19.65,89.61.05-.33.24.29Zm9.19-8.13h-8.29l.21-1.84,6.37-58.48.16-1.72h8.78c.7,0,1.39,0,2,0,16.42.86,27.41,12.34,27,28.75C738.36,260.67,721.21,274.76,702.5,274.76Z"
         id="path13"
         style="fill:#000000;fill-opacity:1.0" />
      <line
         class="eeb01a81-4485-4426-8fe0-780b22b44035"
         x1="720.96"
         y1="193.28"
         x2="712.96"
         y2="193.28"
         id="line13"
         style="fill:#000000;fill-opacity:1.0" />
      <path
         class="eeb01a81-4485-4426-8fe0-780b22b44035"
         d="M386.11,323.69h-7.8L375.73,350H384c7.6-.21,14.34-6.13,14.38-14.13C398.4,328.63,393.38,323.69,386.11,323.69Zm-4.74,23.4,0-.12,0,.08Zm2.37-2.13h-2.17l0-.49L383,329.2l0-.45h2.82a7.24,7.24,0,0,1,7.23,7.52C393.05,341.29,388.64,345,383.74,345Z"
         id="path14"
         style="fill:#000000;fill-opacity:1.0" />
      <line
         class="eeb01a81-4485-4426-8fe0-780b22b44035"
         x1="388.1"
         y1="323.67"
         x2="385.99"
         y2="323.67"
         id="line14"
         style="fill:#000000;fill-opacity:1.0" />
      <polyline
         class="eeb01a81-4485-4426-8fe0-780b22b44035"
         points="703.03 294.2 703.08 294.24 701.44 294.24"
         id="polyline14"
         style="fill:#000000;fill-opacity:1.0" />
      <polygon
         class="eeb01a81-4485-4426-8fe0-780b22b44035"
         points="693.6 282.85 693.32 282.89 693.36 282.56 693.6 282.85"
         id="polygon14"
         style="fill:#000000;fill-opacity:1.0" />
      <path
         class="eeb01a81-4485-4426-8fe0-780b22b44035"
         d="M794.6,198.06v.16l-.2,1.84-10.25,94.18H763.6l11.07-96.92a3.63,3.63,0,0,1,.08-.69,10.5,10.5,0,0,1,1.06-3.35,10,10,0,0,1,17.61,0A10.53,10.53,0,0,1,794.6,198.06Z"
         id="path15"
         style="fill:#000000;fill-opacity:1.0" />
      <path
         class="eeb01a81-4485-4426-8fe0-780b22b44035"
         d="M462,325.32v0l0,.49L459.29,350H454l2.85-24.87V325a4.36,4.36,0,0,1,.29-.86,2.59,2.59,0,0,1,2.25-1.3,2.64,2.64,0,0,1,2.28,1.3A3.08,3.08,0,0,1,462,325.32Z"
         id="path16"
         style="fill:#000000;fill-opacity:1.0" />
      <path
         class="eeb01a81-4485-4426-8fe0-780b22b44035"
         d="M713.51,325.32v0l0,.49L710.81,350h-5.27l2.86-24.87V325a3.79,3.79,0,0,1,.29-.86,2.59,2.59,0,0,1,2.25-1.3,2.64,2.64,0,0,1,2.28,1.3A3.08,3.08,0,0,1,713.51,325.32Z"
         id="path17"
         style="fill:#000000;fill-opacity:1.0" />
      <path
         class="eeb01a81-4485-4426-8fe0-780b22b44035"
         d="M1001.38,325.32v0l0,.49L998.69,350h-5.27l2.86-24.87V325a3.75,3.75,0,0,1,.28-.86,2.59,2.59,0,0,1,2.25-1.3,2.66,2.66,0,0,1,2.29,1.3A3.25,3.25,0,0,1,1001.38,325.32Z"
         id="path18"
         style="fill:#000000;fill-opacity:1.0" />
      <path
         class="eeb01a81-4485-4426-8fe0-780b22b44035"
         d="M940.08,325.32v0l0,.49L937.39,350h-5.27L935,325.16V325a3.36,3.36,0,0,1,.29-.86,2.56,2.56,0,0,1,2.24-1.3,2.66,2.66,0,0,1,2.29,1.3A3.25,3.25,0,0,1,940.08,325.32Z"
         id="path19"
         style="fill:#000000;fill-opacity:1.0" />
      <path
         class="eeb01a81-4485-4426-8fe0-780b22b44035"
         d="M892.87,193.28l-11.81,101h-20l-33-63.22-7,56.36a.12.12,0,0,1,0,.16l-.13.94a1.17,1.17,0,0,1,0,.37,10.56,10.56,0,0,1-1,2.78,10,10,0,0,1-17.6,0,10.34,10.34,0,0,1-1.18-4.58v-.2l.32-2.45v-.08l10.7-91h20.55l32.51,63.18,7.06-63.18Z"
         id="path20"
         style="fill:#000000;fill-opacity:1.0" />
      <path
         class="eeb01a81-4485-4426-8fe0-780b22b44035"
         d="M1063.21,274.68l-2.81,19.56H998.81l11.07-96.92a3.63,3.63,0,0,1,.08-.69,10.26,10.26,0,0,1,1.06-3.35,10,10,0,0,1,18.79,4.78v.16l-.21,1.84-8.13,74.62Z"
         id="path21"
         style="fill:#000000;fill-opacity:1.0" />
      <path
         class="eeb01a81-4485-4426-8fe0-780b22b44035"
         d="M701.15,345l-.72,5H684.56l2.85-25a1.1,1.1,0,0,1,0-.18,2.79,2.79,0,0,1,.27-.86,2.61,2.61,0,0,1,2.27-1.35,2.57,2.57,0,0,1,2.57,2.58v0l0,.48L690.4,345Z"
         id="path22"
         style="fill:#000000;fill-opacity:1.0" />
      <path
         class="eeb01a81-4485-4426-8fe0-780b22b44035"
         d="M867.94,345l-.73,5H851.34l2.86-25a1.1,1.1,0,0,1,0-.18,2.54,2.54,0,0,1,.27-.86,2.58,2.58,0,0,1,4.84,1.23v0l-.05.48L857.18,345Z"
         id="path23"
         style="fill:#000000;fill-opacity:1.0" />
      <path
         class="eeb01a81-4485-4426-8fe0-780b22b44035"
         d="M1073.63,200.47a2.93,2.93,0,0,0,1.26-.94,2.71,2.71,0,0,0,.45-1.51,2.66,2.66,0,0,0-.81-2.09,4,4,0,0,0-2.58-.65h-2.73v9.35h1.55v-3.71h1.43l2.16,3.71h1.76Zm-1.72-.86h-1.14v-3h1.1a2.17,2.17,0,0,1,1.43.37,1.16,1.16,0,0,1,.45,1.1,1.37,1.37,0,0,1-.49,1.1A2,2,0,0,1,1071.91,199.61Zm1.72.86a2.93,2.93,0,0,0,1.26-.94,2.71,2.71,0,0,0,.45-1.51,2.66,2.66,0,0,0-.81-2.09,4,4,0,0,0-2.58-.65h-2.73v9.35h1.55v-3.71h1.43l2.16,3.71h1.76Zm-1.72-.86h-1.14v-3h1.1a2.17,2.17,0,0,1,1.43.37,1.16,1.16,0,0,1,.45,1.1,1.37,1.37,0,0,1-.49,1.1A2,2,0,0,1,1071.91,199.61Zm1.72.86a2.93,2.93,0,0,0,1.26-.94,2.71,2.71,0,0,0,.45-1.51,2.66,2.66,0,0,0-.81-2.09,4,4,0,0,0-2.58-.65h-2.73v9.35h1.55v-3.71h1.43l2.16,3.71h1.76Zm-1.72-.86h-1.14v-3h1.1a2.17,2.17,0,0,1,1.43.37,1.16,1.16,0,0,1,.45,1.1,1.37,1.37,0,0,1-.49,1.1A2,2,0,0,1,1071.91,199.61Zm1.72.86a2.93,2.93,0,0,0,1.26-.94,2.71,2.71,0,0,0,.45-1.51,2.66,2.66,0,0,0-.81-2.09,4,4,0,0,0-2.58-.65h-2.73v9.35h1.55v-3.71h1.43l2.16,3.71h1.76Zm-1.72-.86h-1.14v-3h1.1a2.17,2.17,0,0,1,1.43.37,1.16,1.16,0,0,1,.45,1.1,1.37,1.37,0,0,1-.49,1.1A2,2,0,0,1,1071.91,199.61Zm1.72.86a2.93,2.93,0,0,0,1.26-.94,2.71,2.71,0,0,0,.45-1.51,2.66,2.66,0,0,0-.81-2.09,4,4,0,0,0-2.58-.65h-2.73v9.35h1.55v-3.71h1.43l2.16,3.71h1.76Zm-1.72-.86h-1.14v-3h1.1a2.17,2.17,0,0,1,1.43.37,1.16,1.16,0,0,1,.45,1.1,1.37,1.37,0,0,1-.49,1.1A2,2,0,0,1,1071.91,199.61Zm1.72.86a2.93,2.93,0,0,0,1.26-.94,2.71,2.71,0,0,0,.45-1.51,2.66,2.66,0,0,0-.81-2.09,4,4,0,0,0-2.58-.65h-2.73v9.35h1.55v-3.71h1.43l2.16,3.71h1.76Zm-1.72-.86h-1.14v-3h1.1a2.17,2.17,0,0,1,1.43.37,1.16,1.16,0,0,1,.45,1.1,1.37,1.37,0,0,1-.49,1.1A2,2,0,0,1,1071.91,199.61Zm1.72.86a2.93,2.93,0,0,0,1.26-.94,2.71,2.71,0,0,0,.45-1.51,2.66,2.66,0,0,0-.81-2.09,4,4,0,0,0-2.58-.65h-2.73v9.35h1.55v-3.71h1.43l2.16,3.71h1.76Zm-1.72-.86h-1.14v-3h1.1a2.17,2.17,0,0,1,1.43.37,1.16,1.16,0,0,1,.45,1.1,1.37,1.37,0,0,1-.49,1.1A2,2,0,0,1,1071.91,199.61Zm1.72.86a2.93,2.93,0,0,0,1.26-.94,2.71,2.71,0,0,0,.45-1.51,2.66,2.66,0,0,0-.81-2.09,4,4,0,0,0-2.58-.65h-2.73v9.35h1.55v-3.71h1.43l2.16,3.71h1.76Zm-1.72-.86h-1.14v-3h1.1a2.17,2.17,0,0,1,1.43.37,1.16,1.16,0,0,1,.45,1.1,1.37,1.37,0,0,1-.49,1.1A2,2,0,0,1,1071.91,199.61Zm1.72.86a2.93,2.93,0,0,0,1.26-.94,2.71,2.71,0,0,0,.45-1.51,2.66,2.66,0,0,0-.81-2.09,4,4,0,0,0-2.58-.65h-2.73v9.35h1.55v-3.71h1.43l2.16,3.71h1.76Zm-1.72-.86h-1.14v-3h1.1a2.17,2.17,0,0,1,1.43.37,1.16,1.16,0,0,1,.45,1.1,1.37,1.37,0,0,1-.49,1.1A2,2,0,0,1,1071.91,199.61Zm1.72.86a2.93,2.93,0,0,0,1.26-.94,2.71,2.71,0,0,0,.45-1.51,2.66,2.66,0,0,0-.81-2.09,4,4,0,0,0-2.58-.65h-2.73v9.35h1.55v-3.71h1.43l2.16,3.71h1.76Zm-1.72-.86h-1.14v-3h1.1a2.17,2.17,0,0,1,1.43.37,1.16,1.16,0,0,1,.45,1.1,1.37,1.37,0,0,1-.49,1.1A2,2,0,0,1,1071.91,199.61ZM1079,196a7.8,7.8,0,0,0-2.9-2.86,7.86,7.86,0,0,0-7.92,0,7.66,7.66,0,0,0-2.86,2.9,7.77,7.77,0,0,0-1.06,3.92,7.91,7.91,0,0,0,1,3.88,7.52,7.52,0,0,0,2.86,2.9,7.9,7.9,0,0,0,8,0,7.8,7.8,0,0,0,2.86-2.9,8.1,8.1,0,0,0,1-3.88A7.87,7.87,0,0,0,1079,196Zm-1,7.35a6.61,6.61,0,0,1-2.49,2.49,6.52,6.52,0,0,1-3.39.9,6.7,6.7,0,0,1-3.39-.9,6.76,6.76,0,0,1-3.39-5.88,6.43,6.43,0,0,1,.94-3.39,6.81,6.81,0,0,1,2.45-2.49,6.91,6.91,0,0,1,6.82,0,7.12,7.12,0,0,1,2.45,2.49,6.63,6.63,0,0,1,.94,3.39A6.55,6.55,0,0,1,1078,203.33Zm-3.11-3.8a2.71,2.71,0,0,0,.45-1.51,2.66,2.66,0,0,0-.81-2.09,4,4,0,0,0-2.58-.65h-2.73v9.35h1.55v-3.71h1.43l2.16,3.71h1.76l-2.49-4.16A2.93,2.93,0,0,0,1074.89,199.53Zm-3,.08h-1.14v-3h1.1a2.17,2.17,0,0,1,1.43.37,1.16,1.16,0,0,1,.45,1.1,1.37,1.37,0,0,1-.49,1.1A2,2,0,0,1,1071.91,199.61Zm1.72.86a2.93,2.93,0,0,0,1.26-.94,2.71,2.71,0,0,0,.45-1.51,2.66,2.66,0,0,0-.81-2.09,4,4,0,0,0-2.58-.65h-2.73v9.35h1.55v-3.71h1.43l2.16,3.71h1.76Zm-1.72-.86h-1.14v-3h1.1a2.17,2.17,0,0,1,1.43.37,1.16,1.16,0,0,1,.45,1.1,1.37,1.37,0,0,1-.49,1.1A2,2,0,0,1,1071.91,199.61Zm1.72.86a2.93,2.93,0,0,0,1.26-.94,2.71,2.71,0,0,0,.45-1.51,2.66,2.66,0,0,0-.81-2.09,4,4,0,0,0-2.58-.65h-2.73v9.35h1.55v-3.71h1.43l2.16,3.71h1.76Zm-1.72-.86h-1.14v-3h1.1a2.17,2.17,0,0,1,1.43.37,1.16,1.16,0,0,1,.45,1.1,1.37,1.37,0,0,1-.49,1.1A2,2,0,0,1,1071.91,199.61Zm1.72.86a2.93,2.93,0,0,0,1.26-.94,2.71,2.71,0,0,0,.45-1.51,2.66,2.66,0,0,0-.81-2.09,4,4,0,0,0-2.58-.65h-2.73v9.35h1.55v-3.71h1.43l2.16,3.71h1.76Zm-1.72-.86h-1.14v-3h1.1a2.17,2.17,0,0,1,1.43.37,1.16,1.16,0,0,1,.45,1.1,1.37,1.37,0,0,1-.49,1.1A2,2,0,0,1,1071.91,199.61Zm1.72.86a2.93,2.93,0,0,0,1.26-.94,2.71,2.71,0,0,0,.45-1.51,2.66,2.66,0,0,0-.81-2.09,4,4,0,0,0-2.58-.65h-2.73v9.35h1.55v-3.71h1.43l2.16,3.71h1.76Zm-1.72-.86h-1.14v-3h1.1a2.17,2.17,0,0,1,1.43.37,1.16,1.16,0,0,1,.45,1.1,1.37,1.37,0,0,1-.49,1.1A2,2,0,0,1,1071.91,199.61Zm1.72.86a2.93,2.93,0,0,0,1.26-.94,2.71,2.71,0,0,0,.45-1.51,2.66,2.66,0,0,0-.81-2.09,4,4,0,0,0-2.58-.65h-2.73v9.35h1.55v-3.71h1.43l2.16,3.71h1.76Zm-1.72-.86h-1.14v-3h1.1a2.17,2.17,0,0,1,1.43.37,1.16,1.16,0,0,1,.45,1.1,1.37,1.37,0,0,1-.49,1.1A2,2,0,0,1,1071.91,199.61Zm1.72.86a2.93,2.93,0,0,0,1.26-.94,2.71,2.71,0,0,0,.45-1.51,2.66,2.66,0,0,0-.81-2.09,4,4,0,0,0-2.58-.65h-2.73v9.35h1.55v-3.71h1.43l2.16,3.71h1.76Zm-1.72-.86h-1.14v-3h1.1a2.17,2.17,0,0,1,1.43.37,1.16,1.16,0,0,1,.45,1.1,1.37,1.37,0,0,1-.49,1.1A2,2,0,0,1,1071.91,199.61Zm1.72.86a2.93,2.93,0,0,0,1.26-.94,2.71,2.71,0,0,0,.45-1.51,2.66,2.66,0,0,0-.81-2.09,4,4,0,0,0-2.58-.65h-2.73v9.35h1.55v-3.71h1.43l2.16,3.71h1.76Zm-1.72-.86h-1.14v-3h1.1a2.17,2.17,0,0,1,1.43.37,1.16,1.16,0,0,1,.45,1.1,1.37,1.37,0,0,1-.49,1.1A2,2,0,0,1,1071.91,199.61Zm1.72.86a2.93,2.93,0,0,0,1.26-.94,2.71,2.71,0,0,0,.45-1.51,2.66,2.66,0,0,0-.81-2.09,4,4,0,0,0-2.58-.65h-2.73v9.35h1.55v-3.71h1.43l2.16,3.71h1.76Zm-1.72-.86h-1.14v-3h1.1a2.17,2.17,0,0,1,1.43.37,1.16,1.16,0,0,1,.45,1.1,1.37,1.37,0,0,1-.49,1.1A2,2,0,0,1,1071.91,199.61Zm1.72.86a2.93,2.93,0,0,0,1.26-.94,2.71,2.71,0,0,0,.45-1.51,2.66,2.66,0,0,0-.81-2.09,4,4,0,0,0-2.58-.65h-2.73v9.35h1.55v-3.71h1.43l2.16,3.71h1.76Zm-1.72-.86h-1.14v-3h1.1a2.17,2.17,0,0,1,1.43.37,1.16,1.16,0,0,1,.45,1.1,1.37,1.37,0,0,1-.49,1.1A2,2,0,0,1,1071.91,199.61Zm1.72.86a2.93,2.93,0,0,0,1.26-.94,2.71,2.71,0,0,0,.45-1.51,2.66,2.66,0,0,0-.81-2.09,4,4,0,0,0-2.58-.65h-2.73v9.35h1.55v-3.71h1.43l2.16,3.71h1.76Zm-1.72-.86h-1.14v-3h1.1a2.17,2.17,0,0,1,1.43.37,1.16,1.16,0,0,1,.45,1.1,1.37,1.37,0,0,1-.49,1.1A2,2,0,0,1,1071.91,199.61Z"
         id="path24"
         style="fill:#000000;fill-opacity:1.0" />
      <path
         class="eeb01a81-4485-4426-8fe0-780b22b44035"
         d="M655.33,279.41l-1.67-1.92-18-20.78c16.66-1,30.47-17.24,30.47-34.07,0-17.39-12.79-29.36-30.19-29.36H596.23l-11.51,101h20.5l3.88-35.61,28.59,32.59,0,0,1.88,2.12a10.59,10.59,0,0,0,17.52-8,10.25,10.25,0,0,0-1.8-5.88Zm-23.77-41.33a6,6,0,0,1-.85,0A11.35,11.35,0,0,1,629,238l-17.6-.45v-.32l2.78-25.41h14.94c.7,0,1.43,0,2.13,0,7.35.33,14.54,2.58,15,11.44.4,7.76-6.25,14.33-14.58,14.78Z"
         id="path25"
         style="fill:#000000;fill-opacity:1.0" />
      <path
         class="eeb01a81-4485-4426-8fe0-780b22b44035"
         d="M787.82,331.32c0-4.57-3.35-7.67-7.92-7.67H769.48l-3,26.42h5.39l1-9.31,7.48,8.53.49.58a3,3,0,0,0,1.84.65,2.8,2.8,0,0,0,2.77-2.78,2.58,2.58,0,0,0-.49-1.55l-.41-.49-4.73-5.47C784.19,340,787.82,335.73,787.82,331.32Zm-8.21,4a5.56,5.56,0,0,1-.81.08h-5.31v-.13l.08-.85.65-5.93h3.39c.21,0,.45,0,1.31.05,1.92.08,3.55.65,3.67,3A3.72,3.72,0,0,1,779.61,335.29Z"
         id="path26"
         style="fill:#000000;fill-opacity:1.0" />
      <path
         class="eeb01a81-4485-4426-8fe0-780b22b44035"
         d="M436,323.69h-7.8L425.64,350h8.21c7.6-.21,14.34-6.13,14.42-14.13C448.31,328.63,443.24,323.69,436,323.69Zm-4.69,23.36V347l.08.08Zm2.37-2.13h-2.17l0-.45,1.39-15.27,0-.45h2.82a7.23,7.23,0,0,1,7.19,7.52C442.92,341.25,438.51,344.92,433.65,344.92Z"
         id="path27"
         style="fill:#000000;fill-opacity:1.0" />
      <line
         class="eeb01a81-4485-4426-8fe0-780b22b44035"
         x1="437.98"
         y1="323.67"
         x2="435.87"
         y2="323.67"
         id="line27"
         style="fill:#000000;fill-opacity:1.0" />
      <path
         class="eeb01a81-4485-4426-8fe0-780b22b44035"
         d="M410.28,328.46l-.65,6H416a2.44,2.44,0,0,1,2.41,2.41,2.41,2.41,0,0,1-2.41,2.41h-6.82l-.65,6,10.74,0-.82,4.82H402.65l2.77-26.34h5.4l12.21,0-.9,4.81Z"
         id="path28"
         style="fill:#000000;fill-opacity:1.0" />
      <path
         class="eeb01a81-4485-4426-8fe0-780b22b44035"
         d="M645,323.69h-7.88l-2.53,26.58h8.29c7.67-.2,14.45-6.16,14.54-14.25C657.46,328.67,652.35,323.69,645,323.69Zm-4.74,23.6v-.08l.08.08Zm2.37-2.16h-2.16l0-.45,1.39-15.44,0-.45h2.86a7.31,7.31,0,0,1,7.26,7.6C652,341.41,647.57,345.13,642.63,345.13Z"
         id="path29"
         style="fill:#000000;fill-opacity:1.0" />
      <line
         class="eeb01a81-4485-4426-8fe0-780b22b44035"
         x1="647.12"
         y1="323.67"
         x2="645.02"
         y2="323.67"
         id="line29"
         style="fill:#000000;fill-opacity:1.0" />
      <path
         class="eeb01a81-4485-4426-8fe0-780b22b44035"
         d="M669.34,328.46l-.65,6H675a2.42,2.42,0,0,1,2.41,2.41,2.39,2.39,0,0,1-2.41,2.41h-6.82l-.66,6,10.74,0-.77,4.82H661.7l2.74-26.34h5.43l12.17,0-.9,4.81Z"
         id="path30"
         style="fill:#000000;fill-opacity:1.0" />
      <path
         class="eeb01a81-4485-4426-8fe0-780b22b44035"
         d="M751.31,328.46l-.65,6H757a2.42,2.42,0,0,1,2.41,2.41,2.39,2.39,0,0,1-2.41,2.41h-6.82l-.66,6,10.74,0-.77,4.82H743.67l2.78-26.34h5.39l12.21,0-.9,4.81Z"
         id="path31"
         style="fill:#000000;fill-opacity:1.0" />
      <path
         class="eeb01a81-4485-4426-8fe0-780b22b44035"
         d="M584.11,323.69h-8l-2.53,26.38h7.8a1.46,1.46,0,0,0,.41,0c7.59-.21,14.33-6.09,14.37-14.09C596.19,328.75,591.25,323.77,584.11,323.69Zm-5,23.4,0-.08,0,.08Zm2.37-2.13h-2.16l0-.49,1.39-15.27,0-.45h2.28a2.28,2.28,0,0,1,.54,0,7.21,7.21,0,0,1,7.22,7.52C590.84,341.29,586.43,345,581.53,345Z"
         id="path32"
         style="fill:#000000;fill-opacity:1.0" />
      <line
         class="eeb01a81-4485-4426-8fe0-780b22b44035"
         x1="584.09"
         y1="323.69"
         x2="581.98"
         y2="323.69"
         id="line32"
         style="fill:#000000;fill-opacity:1.0" />
      <path
         class="eeb01a81-4485-4426-8fe0-780b22b44035"
         d="M556.41,328.51l-.65,6h6.29a2.39,2.39,0,0,1,2.41,2.41,2.41,2.41,0,0,1-2.41,2.41h-6.82l-.65,6,10.74,0-.78,4.86H548.78l2.73-26.38H557l12.17,0-.86,4.86Z"
         id="path33"
         style="fill:#000000;fill-opacity:1.0" />
      <path
         class="eeb01a81-4485-4426-8fe0-780b22b44035"
         d="M544.86,326.14a2.48,2.48,0,0,1-2.49,2.45h-6L534,350h-5.26L531,328.59h-7.47l1.51-4.9h17.32A2.47,2.47,0,0,1,544.86,326.14Z"
         id="path34"
         style="fill:#000000;fill-opacity:1.0" />
      <path
         class="eeb01a81-4485-4426-8fe0-780b22b44035"
         d="M990.8,326.14a2.46,2.46,0,0,1-2.45,2.45h-6L980,350h-5.31L977,328.59h-7.44l1.47-4.9h17.36A2.45,2.45,0,0,1,990.8,326.14Z"
         id="path35"
         style="fill:#000000;fill-opacity:1.0" />
      <path
         class="eeb01a81-4485-4426-8fe0-780b22b44035"
         d="M741.55,324.87l-11.76,24.87-.13.29H724.6l-.29-1.14-5.63-21.57a0,0,0,0,0,0,0l-.45-1.76v0a2.79,2.79,0,0,1,2.77-2.61c1.52,0,2.41.94,2.82,2.61l4,15.93,8.17-17.76Z"
         id="path36"
         style="fill:#000000;fill-opacity:1.0" />
      <path
         class="eeb01a81-4485-4426-8fe0-780b22b44035"
         d="M812.29,323.65l-10,13.6-1.19,10.41v.2a3.46,3.46,0,0,1-.28.86,2.58,2.58,0,0,1-2.25,1.31,2.61,2.61,0,0,1-2.28-1.31,3,3,0,0,1-.29-1.22v0l0-.49,1-9.36,0-.16-.2-.37-5.35-11,4-2.45,2.57,4.9,2.13,4.08,3.1-4.17,3.55-4.81Z"
         id="path37"
         style="fill:#000000;fill-opacity:1.0" />
      <path
         class="eeb01a81-4485-4426-8fe0-780b22b44035"
         d="M885.76,323.48a14.11,14.11,0,0,0-14,13.28A12.43,12.43,0,0,0,884.37,350a14.11,14.11,0,0,0,14-13.27A12.46,12.46,0,0,0,885.76,323.48Zm-1.1,21.12a7.37,7.37,0,0,1-7.44-7.84,8.35,8.35,0,0,1,8.25-7.85,7.4,7.4,0,0,1,7.44,7.85A8.38,8.38,0,0,1,884.66,344.6Z"
         id="path38"
         style="fill:#000000;fill-opacity:1.0" />
      <polyline
         class="ae84b97d-658c-4c26-ad19-096dfee824dc"
         points="925.99 348.03 925.99 348.15 925.95 348.15"
         id="polyline38"
         style="fill:#000000;fill-opacity:1.0" />
      <path
         class="eeb01a81-4485-4426-8fe0-780b22b44035"
         d="M926.85,335.37l-.29,4-.33,5.35-.2,2.86a2.07,2.07,0,0,1,0,.49s0,.08,0,.12a2.61,2.61,0,0,1-5.08-.32,13.24,13.24,0,0,1-6.53,1.77c-7.31,0-11.72-5.49-11.35-12.84a13.88,13.88,0,0,1,13.69-13.28,12.55,12.55,0,0,1,8.08,2.86s.08,0,.08.08a10.39,10.39,0,0,1,1.15,1.06,3,3,0,0,1,.41,1.47,2.84,2.84,0,0,1-2.86,2.86,2.76,2.76,0,0,1-1.8-.65.77.77,0,0,0-.33-.29,7.29,7.29,0,0,0-5-2,8.37,8.37,0,0,0-8.25,7.85c-.2,4.32,2.82,7.84,7.15,7.84,3.43,0,5.76-2.21,6.7-5.27h-5.8v-4Z"
         id="path39"
         style="fill:#000000;fill-opacity:1.0" />
      <path
         class="eeb01a81-4485-4426-8fe0-780b22b44035"
         d="M964.05,339.57a7.44,7.44,0,0,1,.37,2.54s-.25,7.92-9.6,7.92c-4.49,0-7-.65-9.68-4a5.64,5.64,0,0,1-1.3-3.11c-.05-1.51.53-2.69,2.28-2.86.61,0,1.64.09,2,.78a6.79,6.79,0,0,0,1.39,2.29,5.32,5.32,0,0,0,3.64,1.79c2.65.29,6-.4,6.24-2.81v0c-.08-1.19-1-3-5.55-3.72-7.27-1.23-7-6.33-6.13-9.27.82-2.74,3.76-5.92,9.6-5.92,5.64,0,9,4.61,9,4.61l-3.8,3.55c-2-3.55-8.91-4.37-9.89-1.34-1.1,3.35,2.41,3.92,6.82,5.06A6.43,6.43,0,0,1,964.05,339.57Z"
         id="path40"
         style="fill:#000000;fill-opacity:1.0" />
      <path
         class="eeb01a81-4485-4426-8fe0-780b22b44035"
         d="M1053.65,339.57a7.44,7.44,0,0,1,.37,2.54s-.24,7.92-9.6,7.92c-4.49,0-7-.65-9.68-4a5.64,5.64,0,0,1-1.3-3.11c0-1.51.53-2.69,2.28-2.86.62,0,1.64.09,2,.78a6.79,6.79,0,0,0,1.39,2.29,5.32,5.32,0,0,0,3.64,1.79c2.65.29,6-.4,6.25-2.81v0c-.09-1.19-1-3-5.56-3.72-7.27-1.23-7-6.33-6.12-9.27.81-2.74,3.75-5.92,9.59-5.92,5.64,0,9,4.61,9,4.61l-3.8,3.55c-2-3.55-8.9-4.37-9.88-1.34-1.11,3.35,2.41,3.92,6.82,5.06A6.43,6.43,0,0,1,1053.65,339.57Z"
         id="path41"
         style="fill:#000000;fill-opacity:1.0" />
      <polygon
         class="b1efb4d5-43d7-4a2e-ba74-7036435eb84f"
         points="835.87 309.98 829.71 360.91 823.62 360.91 830.5 309.98 835.87 309.98"
         id="polygon41"
         style="fill-opacity:1.0;fill:#c62032" />
      <polygon
         class="b1efb4d5-43d7-4a2e-ba74-7036435eb84f"
         points="620.33 309.98 614.17 360.91 608.08 360.91 614.96 309.98 620.33 309.98"
         id="polygon42"
         style="fill-opacity:1.0;fill:#c62032" />
    </g>
  </g>
  <metadata
     id="metadata42">
    <rdf:RDF>
      <cc:Work
         rdf:about="">
        <dc:title>cardinal-logo</dc:title>
      </cc:Work>
    </rdf:RDF>
  </metadata>
</svg>
