<svg xmlns:inkscape="http://www.inkscape.org/namespaces/inkscape" xmlns:sodipodi="http://sodipodi.sourceforge.net/DTD/sodipodi-0.dtd" xmlns="http://www.w3.org/2000/svg" xmlns:svg="http://www.w3.org/2000/svg" id="svg1" width="1200" height="324" viewBox="0 0 1200 324"><defs id="defs1"></defs><g id="g1"><path id="path1" d="m 1038.52,1124.34 c -85.668,-28.68 -169.649,-58.95 -252.469,-96.57 l 0.039,0.59 C 743.52,1009.06 701.25,987.66 659.262,963.48 612.07,936.328 565.23,905.621 518.59,870.16 472.891,835.391 428.949,758.441 417.34,702.191 L 385.039,545.082 c -17.738,-86.102 16.133,-208.871 84.262,-264.344 25.187,-20.508 51.211,-39.957 78.039,-58.316 30.781,-21.09 63.32,-7.07 71.371,29.379 35.551,160.66 123.59,559.289 123.051,560.859 C 981.559,466.172 1439.06,347.77 1816.84,534.379 1555.35,483.91 1289.26,595.98 1142.62,818.238 c -59.61,91.801 -95.39,196.992 -104.1,306.102 z" style="fill:#1a1a1a;fill-opacity:1;fill-rule:nonzero;stroke:none" transform="matrix(0.13333333,0,0,-0.13333333,0,324)"></path><path id="path2" d="m 2301.21,1715.04 h 0.04 c 42.15,-112.27 64.14,-231.09 65.04,-351.02 0,-563.36 -456.68,-1020.071 -1020.04,-1020.071 -177.77,0.582 -351.172,47.422 -503.75,134.602 -33.711,19.301 -66.602,6.25 -75,-31.672 L 713.48,202.77 c -8.402,-37.93 12.969,-82.891 48.711,-98.079 145.7,-61.9215 302.729,-94.4918 462.149,-95.08162 659.21,0 1193.59,534.37062 1193.59,1193.55062 -0.39,177.27 -40.27,352.15 -116.72,512.04 z" style="fill:#0437f2;fill-opacity:1;fill-rule:nonzero;stroke:none" transform="matrix(0.13333333,0,0,-0.13333333,0,324)"></path><path id="path3" d="m 865.699,1887.89 c -79.367,-22.85 -155.187,-57.03 -225.148,-101.6 L 535,1273.44 c 117.109,114.02 236.449,197.07 355.27,260.9 l 56.371,273.94 c 11.64,56.6 -25.469,95.63 -80.942,79.61 z" style="fill:#1a1a1a;fill-opacity:1;fill-rule:nonzero;stroke:none" transform="matrix(0.13333333,0,0,-0.13333333,0,324)"></path><path id="path4" d="M 1221.02,2429.69 C 550.82,2429.69 7.5,1886.37 7.5,1216.17 7.89063,1035.98 48.4414,858.121 126.129,695.551 83.2813,809.691 60.8984,930.512 60,1052.42 c 0,572.81 464.34,1037.15 1037.11,1037.11 232.62,0 458.4,-78.55 641.09,-222.54 86.37,44.34 170.75,98.95 253.56,171.49 35.15,30.78 34.45,84.18 -1.6,113.94 -215.94,178.05 -487.54,276.56 -769.14,277.27 z" style="fill:#0437f2;fill-opacity:1;fill-rule:evenodd;stroke:none" transform="matrix(0.13333333,0,0,-0.13333333,0,324)"></path><path id="path5" d="m 1968.63,1595.47 c -4.18,-4.96 -8.47,-9.81 -12.81,-14.61 -87.34,-96.41 -200.98,-166.13 -348.52,-241.06 -53.08,-26.99 -108.43,-50.7 -165.19,-72.92 l -23.63,-115.79 c -9.38,-46.05 18,-68.67 62.07,-52.18 49.84,18.67 99.68,35.7 149.45,52.26 l -98.48,-510.58 c 87.19,-47.309 186.33,-49.77 287.7,-45.82 l 140.47,690.11 c 15.93,78.32 34.96,193.56 54.06,290.71 13.83,70.35 1.37,74.41 -45.12,19.88 z" style="fill:#0437f2;fill-opacity:1;fill-rule:nonzero;stroke:none" transform="matrix(0.13333333,0,0,-0.13333333,0,324)"></path><path id="path6" d="M 2063.12,1975.9 C 1493.52,1467.93 851.371,1759.45 282.379,787.191 731.988,1186.17 1222.38,1228.24 1573.36,1406.56 c 288.98,146.84 419.61,262.23 489.76,569.34 z" style="fill:#1a1a1a;fill-opacity:1;fill-rule:nonzero;stroke:none" transform="matrix(0.13333333,0,0,-0.13333333,0,324)"></path><path id="path7" d="m 4086.72,860.699 41.91,633.791 97.07,-98.44 h -226.64 l 12.07,182.54 h 365.12 l -47.5,-717.891 z" style="fill:#0437f2;fill-opacity:1;fill-rule:nonzero;stroke:none" transform="matrix(0.13333333,0,0,-0.13333333,0,324)"></path><path id="path8" d="m 3411.8,1014.53 4.22,265.63 290.46,298.43 h 263.6 l -325.7,-334.33 -143.44,-137.42 z m -226.57,-153.831 47.47,717.891 h 237.92 l -47.46,-717.891 z m 471.76,0 -192.85,278.951 167.89,166.13 304.92,-445.081 z" style="fill:#0437f2;fill-opacity:1;fill-rule:nonzero;stroke:none" transform="matrix(0.13333333,0,0,-0.13333333,0,324)"></path><path id="path9" d="m 8549.18,860.699 38.52,582.501 h -229.73 l 8.94,135.39 h 625.59 l -8.95,-135.39 h -229.72 l -38.52,-582.501 z" style="fill:#1a1a1a;fill-opacity:1;fill-rule:nonzero;stroke:none" transform="matrix(0.13333333,0,0,-0.13333333,0,324)"></path><path id="path10" d="M 8111.56,1578.59 H 8277.7 L 8230.23,860.699 H 8064.1 Z m -15.7,-423.55 h -350.74 l 9.29,140.51 h 350.75 z M 7737.97,860.699 h -166.13 l 47.46,717.891 h 166.13 z" style="fill:#1a1a1a;fill-opacity:1;fill-rule:nonzero;stroke:none" transform="matrix(0.13333333,0,0,-0.13333333,0,324)"></path><path id="path11" d="m 7164.34,848.398 c -56.76,0 -108.48,8.872 -155.16,26.68 -45.94,18.442 -85.59,44.41 -118.95,77.934 -32.65,33.468 -57.38,72.808 -74.21,117.928 -16.18,45.11 -22.47,94.68 -18.91,148.71 3.59,54.02 16.44,103.59 38.55,148.71 22.82,45.12 53.09,84.41 90.86,117.93 37.78,33.51 81.18,59.14 130.24,76.91 49.06,18.48 102.3,27.7 159.76,27.7 63.56,0 119.96,-10.59 169.14,-31.8 49.89,-21.17 90.94,-51.95 123.13,-92.3 l -113.17,-98.44 c -24.17,27.34 -51.21,47.5 -81.13,60.51 -29.84,13.67 -62.89,20.51 -99.14,20.51 -34.88,0 -67.03,-5.47 -96.44,-16.41 -29.46,-10.94 -55.47,-26.68 -78.01,-47.19 -21.88,-20.51 -39.53,-44.76 -53.01,-72.81 -12.81,-28.05 -20.31,-59.14 -22.58,-93.32 -2.22,-33.52 1.21,-64.26 10.31,-92.31 9.77,-28.04 24.18,-52.65 43.33,-73.82 19.8,-20.51 43.39,-36.25 70.7,-47.19 28.01,-10.939 59.1,-16.408 93.28,-16.408 32.81,0 64.92,5.117 96.37,15.388 32.18,10.94 63.82,29.07 94.88,54.34 l 86.41,-120.002 c -40.9,-29.378 -87.86,-51.949 -140.86,-67.66 -52.31,-15.738 -104.11,-23.59 -155.39,-23.59 z m 145.89,112.813 17.86,269.729 h 151.75 l -19.25,-291.292 z" style="fill:#1a1a1a;fill-opacity:1;fill-rule:nonzero;stroke:none" transform="matrix(0.13333333,0,0,-0.13333333,0,324)"></path><path id="path12" d="m 6498.16,860.699 47.46,717.891 h 166.14 L 6664.3,860.699 Z" style="fill:#1a1a1a;fill-opacity:1;fill-rule:nonzero;stroke:none" transform="matrix(0.13333333,0,0,-0.13333333,0,324)"></path><path id="path13" d="m 6001.84,1289.38 h 345.62 l -8.55,-129.22 h -345.63 z m -7.23,-295.36 h 390.74 l -8.83,-133.321 h -555.86 l 47.5,717.891 h 542.5 l -8.82,-133.32 h -377.39 z" style="fill:#1a1a1a;fill-opacity:1;fill-rule:nonzero;stroke:none" transform="matrix(0.13333333,0,0,-0.13333333,0,324)"></path><path id="path14" d="m 5110.39,860.699 47.5,717.891 h 310.74 c 64.26,0 118.95,-10.58 164.03,-31.79 45.15,-20.51 79.06,-50.24 101.79,-89.22 22.7,-38.99 32.31,-85.47 28.71,-139.49 -3.51,-53.32 -19.21,-99.46 -47.11,-138.44 -27.81,-38.28 -65.66,-67.7 -113.51,-88.2 -47.85,-20.51 -103.91,-30.79 -168.16,-30.79 h -218.44 l 78.63,72.86 -18.01,-272.821 z m 456.41,0 -162.27,260.511 h 177.42 l 164.3,-260.511 z m -273.44,254.341 -68.67,77.93 h 209.22 c 51.25,0 90.27,10.94 117.03,32.81 26.79,22.58 41.44,53.36 44.02,92.31 2.62,39.64 -7.97,70.43 -31.84,92.3 -23.82,21.88 -61.4,32.81 -112.69,32.81 h -209.22 l 79.06,78.99 z" style="fill:#1a1a1a;fill-opacity:1;fill-rule:nonzero;stroke:none" transform="matrix(0.13333333,0,0,-0.13333333,0,324)"></path><path id="path15" d="m 4665.62,1255.55 h 344.61 l -8.82,-133.32 H 4656.8 Z M 4651.84,860.699 H 4485.7 l 47.46,717.891 h 542.54 l -8.82,-133.32 h -376.41 z" style="fill:#1a1a1a;fill-opacity:1;fill-rule:nonzero;stroke:none" transform="matrix(0.13333333,0,0,-0.13333333,0,324)"></path><path id="path16" d="m 2876.99,1812.54 h 69.46 L 2868.98,626.762 h -69.45 z" style="fill:#1a1a1a;fill-opacity:1;fill-rule:nonzero;stroke:none" transform="matrix(0.13333333,0,0,-0.13333333,0,324)"></path></g></svg>